<svg xmlns="http://www.w3.org/2000/svg" viewBox="0 0 300 170" width="300" height="170" fill="none" role="img" aria-hidden="true">
    <rect x="0" y="148" width="300" height="4" rx="2" fill="#FAE79A"/>
    <!-- le livret officiel -->
    <g transform="translate(150 92)">
      <rect x="-62" y="-62" width="124" height="124" rx="8" fill="#141414"/>
      <rect x="-62" y="-62" width="14" height="124" rx="7" fill="#EEC531"/>
      <rect x="-34" y="-40" width="76" height="7" rx="3.5" fill="#FEFAE9"/>
      <rect x="-34" y="-24" width="54" height="5" rx="2.5" fill="#FEFAE9" opacity=".65"/>
      <rect x="-34" y="2" width="76" height="4.5" rx="2.25" fill="#FEFAE9" opacity=".45"/><rect x="-34" y="15" width="54" height="4.5" rx="2.25" fill="#FEFAE9" opacity=".45"/><rect x="-34" y="28" width="76" height="4.5" rx="2.25" fill="#FEFAE9" opacity=".45"/><rect x="-34" y="41" width="54" height="4.5" rx="2.25" fill="#FEFAE9" opacity=".45"/>
      <rect x="-14" y="-74" width="28" height="26" rx="2" fill="#E28792"/>
      <path d="M-14 -48 l14 -9 l14 9Z" fill="#E28792"/>
    </g>
    <g transform="translate(244 40)">
    <rect x="-3" y="-6" width="5" height="76" rx="2.5" fill="#B4BAB8"/>
    <rect x="2" y="-6" width="16" height="32" fill="#141414"/>
    <rect x="18" y="-6" width="16" height="32" fill="#F6F7F7"/>
    <rect x="34" y="-6" width="16" height="32" fill="#E28792"/>
  </g>
</svg>