<svg xmlns="http://www.w3.org/2000/svg" viewBox="0 0 800 420" width="800" height="420" role="img" aria-hidden="true">
  <defs>
    <linearGradient id="sky" x1="0" y1="0" x2="0" y2="1">
      <stop offset="0" stop-color="#3b2a63"/><stop offset="1" stop-color="#7c5aa8"/>
    </linearGradient>
    <radialGradient id="glow" cx="50%" cy="52%" r="52%">
      <stop offset="0" stop-color="#f5c86b" stop-opacity=".55"/>
      <stop offset="1" stop-color="#f5c86b" stop-opacity="0"/>
    </radialGradient>
  </defs>
  <rect width="800" height="420" fill="url(#sky)"/>
  <ellipse cx="400" cy="260.4" rx="330" ry="200" fill="url(#glow)"/><circle cx="174" cy="216" r="1.3" fill="#fff" opacity="0.41"/><circle cx="203" cy="222" r="1.3" fill="#fff" opacity="0.30"/><circle cx="386" cy="219" r="1.8" fill="#fff" opacity="0.29"/><circle cx="507" cy="162" r="0.7" fill="#fff" opacity="0.51"/><circle cx="586" cy="200" r="0.9" fill="#fff" opacity="0.24"/><circle cx="256" cy="194" r="1.6" fill="#fff" opacity="0.47"/><circle cx="278" cy="73" r="1.8" fill="#fff" opacity="0.19"/><circle cx="583" cy="117" r="1.5" fill="#fff" opacity="0.26"/><circle cx="451" cy="6" r="1.3" fill="#fff" opacity="0.28"/><circle cx="19" cy="105" r="1.0" fill="#fff" opacity="0.52"/><circle cx="729" cy="128" r="1.0" fill="#fff" opacity="0.22"/><circle cx="706" cy="40" r="1.7" fill="#fff" opacity="0.38"/><circle cx="264" cy="179" r="0.7" fill="#fff" opacity="0.18"/><circle cx="757" cy="157" r="1.9" fill="#fff" opacity="0.39"/><circle cx="753" cy="220" r="0.9" fill="#fff" opacity="0.24"/><circle cx="746" cy="219" r="2.1" fill="#fff" opacity="0.21"/><circle cx="399" cy="126" r="0.8" fill="#fff" opacity="0.22"/><circle cx="326" cy="6" r="1.3" fill="#fff" opacity="0.54"/><circle cx="398" cy="148" r="1.6" fill="#fff" opacity="0.50"/><circle cx="190" cy="189" r="1.6" fill="#fff" opacity="0.41"/><circle cx="758" cy="15" r="1.1" fill="#fff" opacity="0.33"/><circle cx="554" cy="119" r="1.8" fill="#fff" opacity="0.51"/><circle cx="661" cy="37" r="0.9" fill="#fff" opacity="0.39"/><circle cx="183" cy="169" r="1.1" fill="#fff" opacity="0.28"/><circle cx="146" cy="57" r="2.0" fill="#fff" opacity="0.50"/><circle cx="748" cy="58" r="1.1" fill="#fff" opacity="0.45"/>
    <path d="M50 358 Q 400 168 750 358 Z" fill="#4a3574"/>
    <!-- double palissade romaine autour de la colline -->
    <path d="M60 324 l0 -30 l7 -10 l7 10 l0 30Z" fill="#2b1d49"/><path d="M87 324 l0 -30 l7 -10 l7 10 l0 30Z" fill="#2b1d49"/><path d="M114 324 l0 -30 l7 -10 l7 10 l0 30Z" fill="#2b1d49"/><path d="M141 324 l0 -30 l7 -10 l7 10 l0 30Z" fill="#2b1d49"/><path d="M168 324 l0 -30 l7 -10 l7 10 l0 30Z" fill="#2b1d49"/><path d="M195 324 l0 -30 l7 -10 l7 10 l0 30Z" fill="#2b1d49"/><path d="M222 324 l0 -30 l7 -10 l7 10 l0 30Z" fill="#2b1d49"/><path d="M249 324 l0 -30 l7 -10 l7 10 l0 30Z" fill="#2b1d49"/><path d="M276 324 l0 -30 l7 -10 l7 10 l0 30Z" fill="#2b1d49"/><path d="M303 324 l0 -30 l7 -10 l7 10 l0 30Z" fill="#2b1d49"/><path d="M330 324 l0 -30 l7 -10 l7 10 l0 30Z" fill="#2b1d49"/><path d="M357 324 l0 -30 l7 -10 l7 10 l0 30Z" fill="#2b1d49"/><path d="M384 324 l0 -30 l7 -10 l7 10 l0 30Z" fill="#2b1d49"/><path d="M411 324 l0 -30 l7 -10 l7 10 l0 30Z" fill="#2b1d49"/><path d="M438 324 l0 -30 l7 -10 l7 10 l0 30Z" fill="#2b1d49"/><path d="M465 324 l0 -30 l7 -10 l7 10 l0 30Z" fill="#2b1d49"/><path d="M492 324 l0 -30 l7 -10 l7 10 l0 30Z" fill="#2b1d49"/><path d="M519 324 l0 -30 l7 -10 l7 10 l0 30Z" fill="#2b1d49"/><path d="M546 324 l0 -30 l7 -10 l7 10 l0 30Z" fill="#2b1d49"/><path d="M573 324 l0 -30 l7 -10 l7 10 l0 30Z" fill="#2b1d49"/><path d="M600 324 l0 -30 l7 -10 l7 10 l0 30Z" fill="#2b1d49"/><path d="M627 324 l0 -30 l7 -10 l7 10 l0 30Z" fill="#2b1d49"/><path d="M654 324 l0 -30 l7 -10 l7 10 l0 30Z" fill="#2b1d49"/><path d="M681 324 l0 -30 l7 -10 l7 10 l0 30Z" fill="#2b1d49"/><path d="M708 324 l0 -30 l7 -10 l7 10 l0 30Z" fill="#2b1d49"/><path d="M735 324 l0 -30 l7 -10 l7 10 l0 30Z" fill="#2b1d49"/>
    <path d="M0 358 Q 200 344 400 358 T 800 352 L800 420 L0 420Z" fill="#150d28"/>
    <!-- le vaincu debout, le vainqueur assis : deux silhouettes bien détachées -->
    <g transform="translate(236 376) scale(1.25)" fill="#f5c86b">
    <circle cx="0" cy="-46" r="9"/>
    <path d="M-11 -36 q11 -6 22 0 l4 26 -8 2 -2 26 -5 0 -2 -22 -2 22 -5 0 -2 -26 -8 -2Z"/>
  </g>
    <g transform="translate(572 376) scale(1.15)" fill="#6b4f9c">
    <circle cx="0" cy="-46" r="9"/>
    <path d="M-11 -36 q11 -6 22 0 l4 26 -8 2 -2 26 -5 0 -2 -22 -2 22 -5 0 -2 -26 -8 -2Z"/>
  </g>
    <!-- les armes déposées entre les deux -->
    <g transform="translate(400 386)">
      <ellipse cx="0" cy="6" rx="86" ry="15" fill="#150d28" opacity=".5"/>
      <path d="M-74 -2 l138 -14" stroke="#f5c86b" stroke-width="6" stroke-linecap="round"/>
      <path d="M64 -16 l24 -3 l-22 -9Z" fill="#f5c86b"/>
      <rect x="-84" y="-8" width="26" height="8" rx="4" fill="#e0876a"/>
      <path d="M-40 4 a44 30 0 0 1 88 0Z" fill="#e0876a"/>
      <path d="M-40 4 a44 30 0 0 1 88 0" fill="none" stroke="#f5c86b" stroke-width="3"/>
      <circle cx="4" cy="-8" r="7" fill="#f5c86b"/>
    </g>
</svg>