<svg xmlns="http://www.w3.org/2000/svg" viewBox="0 0 800 420" width="800" height="420" role="img" aria-hidden="true">
  <defs>
    <linearGradient id="sky" x1="0" y1="0" x2="0" y2="1">
      <stop offset="0" stop-color="#123a63"/><stop offset="1" stop-color="#3d7ea6"/>
    </linearGradient>
    <radialGradient id="glow" cx="50%" cy="52%" r="52%">
      <stop offset="0" stop-color="#ffd27a" stop-opacity=".55"/>
      <stop offset="1" stop-color="#ffd27a" stop-opacity="0"/>
    </radialGradient>
  </defs>
  <rect width="800" height="420" fill="url(#sky)"/>
  <circle cx="400" cy="190" r="300" fill="url(#glow)"/><circle cx="10" cy="164" r="0.9" fill="#fff" opacity="0.54"/><circle cx="334" cy="96" r="1.5" fill="#fff" opacity="0.37"/><circle cx="466" cy="30" r="1.4" fill="#fff" opacity="0.17"/><circle cx="131" cy="160" r="1.1" fill="#fff" opacity="0.17"/><circle cx="445" cy="132" r="1.0" fill="#fff" opacity="0.35"/><circle cx="360" cy="20" r="2.1" fill="#fff" opacity="0.27"/><circle cx="45" cy="70" r="1.5" fill="#fff" opacity="0.37"/><circle cx="793" cy="133" r="2.2" fill="#fff" opacity="0.32"/><circle cx="669" cy="181" r="0.7" fill="#fff" opacity="0.44"/><circle cx="285" cy="49" r="1.7" fill="#fff" opacity="0.20"/><circle cx="312" cy="24" r="1.4" fill="#fff" opacity="0.54"/><circle cx="326" cy="206" r="1.3" fill="#fff" opacity="0.16"/><circle cx="584" cy="19" r="1.2" fill="#fff" opacity="0.32"/><circle cx="335" cy="188" r="1.3" fill="#fff" opacity="0.48"/><circle cx="665" cy="16" r="1.8" fill="#fff" opacity="0.48"/><circle cx="676" cy="134" r="1.0" fill="#fff" opacity="0.21"/><circle cx="594" cy="86" r="1.3" fill="#fff" opacity="0.41"/><circle cx="618" cy="229" r="1.8" fill="#fff" opacity="0.47"/><circle cx="293" cy="87" r="2.0" fill="#fff" opacity="0.52"/><circle cx="24" cy="105" r="0.9" fill="#fff" opacity="0.19"/><circle cx="720" cy="73" r="2.2" fill="#fff" opacity="0.41"/><circle cx="770" cy="32" r="0.9" fill="#fff" opacity="0.34"/><circle cx="758" cy="166" r="1.1" fill="#fff" opacity="0.49"/><circle cx="703" cy="166" r="1.0" fill="#fff" opacity="0.15"/><circle cx="240" cy="122" r="1.5" fill="#fff" opacity="0.31"/><circle cx="129" cy="194" r="1.4" fill="#fff" opacity="0.37"/>
    <path d="M0 358 Q 200 344 400 358 T 800 352 L800 420 L0 420Z" fill="#06121f"/>
    <!-- quatre marches, quatre lois -->
    <rect x="100" y="298" width="150" height="60" rx="4" fill="#1d5480"/>
      <polygon points="175.0,263.0 178.2,271.6 187.4,272.0 180.2,277.7 182.6,286.5 175.0,281.5 167.4,286.5 169.8,277.7 162.6,272.0 171.8,271.6" fill="#ffd27a"/><rect x="223" y="256" width="150" height="102" rx="4" fill="#0f2c4d"/>
      <polygon points="298.0,221.0 301.2,229.6 310.4,230.0 303.2,235.7 305.6,244.5 298.0,239.5 290.4,244.5 292.8,235.7 285.6,230.0 294.8,229.6" fill="#ffd27a"/><rect x="346" y="214" width="150" height="144" rx="4" fill="#1d5480"/>
      <polygon points="421.0,179.0 424.2,187.6 433.4,188.0 426.2,193.7 428.6,202.5 421.0,197.5 413.4,202.5 415.8,193.7 408.6,188.0 417.8,187.6" fill="#ffd27a"/><rect x="469" y="172" width="150" height="186" rx="4" fill="#0f2c4d"/>
      <polygon points="544.0,137.0 547.2,145.6 556.4,146.0 549.2,151.7 551.6,160.5 544.0,155.5 536.4,160.5 538.8,151.7 531.6,146.0 540.8,145.6" fill="#ffd27a"/>
    <g transform="translate(596 152) scale(0.95)" fill="#06121f">
    <circle cx="0" cy="-46" r="9"/>
    <path d="M-11 -36 q11 -6 22 0 l4 26 -8 2 -2 26 -5 0 -2 -22 -2 22 -5 0 -2 -26 -8 -2Z"/>
  </g>
</svg>